<?xml version="1.0" encoding="utf-8"?>
<!-- Generator: Adobe Illustrator 25.3.1, SVG Export Plug-In . SVG Version: 6.00 Build 0)  -->
<svg version="1.1" id="Layer_1" xmlns="http://www.w3.org/2000/svg" xmlns:xlink="http://www.w3.org/1999/xlink" x="0px" y="0px"
	 viewBox="0 0 839.6 131.1" style="enable-background:new 0 0 839.6 131.1;" xml:space="preserve">
<style type="text/css">
	.st0{fill:#0087EE;}
	.st1{fill:#004477;}
</style>
<path class="st0" d="M23.3,68.1C13.9,64.5,4.7,64.8,0,64.8v37.6c0,18,4.2,25.4,14.2,25.4c13.5,0,26.2-6.6,26.2-30.4
	C40.4,82.1,33.6,72.1,23.3,68.1"/>
<path class="st0" d="M25.4,53.1c6.3-5.5,9.1-14.1,9.1-22.4c0-7.2-2.3-14.8-7.8-19.2C20.3,6.4,11,4.7,8.9,4.7c-4,0-8.2,0.2-8.4,3.2
	C0.2,11.7,0,28.2,0,44v14.4C7.8,59.2,19.9,58,25.4,53.1"/>
<path class="st0" d="M104.3,1.2H43.2c1.8,0.5,3.6,1.3,5.2,2.2C59.2,9.2,63,18,63,29.2c0,12.5-7.6,24.7-27.7,31.3v0.4
	c23.5,6.1,35.9,17.5,35.9,37.6c0,10.2-5.7,24.3-14.8,28.9c-3.2,1.6-6.6,2.8-10.1,3.6h58L104.3,1.2z"/>
<path class="st0" d="M135.6,113.9L135.6,113.9c-0.2-9.4,7.2-17.2,16.5-17.4c0.2,0,0.5,0,0.7,0c4.9-0.2,9.6,1.7,13.1,5.2l-3.8,4.3
	c-2.7-2.5-5.5-4.1-9.4-4.1c-6.3,0-11,5.2-11,11.8v0.1c0,6.5,4.6,11.8,11,11.8c4.1,0,6.7-1.6,9.6-4.3l3.8,3.8
	c-3.5,3.6-7.3,5.9-13.5,5.9c-9.3,0.1-16.9-7.3-17-16.6C135.5,114.3,135.5,114.1,135.6,113.9"/>
<path class="st0" d="M197.6,117.3l-5.8-13.4l-5.7,13.4H197.6z M189.2,96.9h5.4l14.7,33.6h-6.2l-3.4-8.1H184l-3.4,8.1h-6L189.2,96.9z
	"/>
<path class="st0" d="M232.9,114.5c4.4,0,7.2-2.5,7.2-6v-0.1c0-3.9-2.8-6-7.2-6h-6.8v12L232.9,114.5z M220.2,97.1h13.2
	c7.8,0,12.7,4.4,12.7,11.2v0.1c0,7.5-6,11.4-13.4,11.4h-6.6v10.7h-5.9V97.1z"/>
<rect x="257.5" y="97.1" class="st0" width="5.9" height="33.4"/>
<polygon class="st0" points="285.7,102.6 275.1,102.6 275.1,97.1 302.2,97.1 302.2,102.6 291.6,102.6 291.6,130.5 285.7,130.5 "/>
<path class="st0" d="M333.7,117.3l-5.7-13.4l-5.7,13.4H333.7z M325.3,96.9h5.4l14.7,33.6h-6.2l-3.4-8.1h-15.8l-3.4,8.1h-6
	L325.3,96.9z"/>
<polygon class="st0" points="356.3,97.1 362.2,97.1 362.2,125.2 379.8,125.2 379.8,130.5 356.3,130.5 "/>
<polygon class="st0" points="409.4,97.1 415.7,97.1 425.8,112.9 436,97.1 442.2,97.1 442.2,130.5 436.4,130.5 436.4,106.6 
	425.8,122.3 425.6,122.3 415.2,106.7 415.2,130.5 409.4,130.5 "/>
<path class="st0" d="M476.2,117.3l-5.8-13.4l-5.7,13.4H476.2z M467.8,96.9h5.4l14.7,33.6h-6.2l-3.4-8.1h-15.8l-3.4,8.1h-6
	L467.8,96.9z"/>
<polygon class="st0" points="498.8,97.1 504.2,97.1 522.1,120.2 522.1,97.1 527.9,97.1 527.9,130.5 523,130.5 504.5,106.8 
	504.5,130.5 498.8,130.5 "/>
<path class="st0" d="M561.8,117.3l-5.8-13.4l-5.7,13.4H561.8z M553.4,96.9h5.4l14.7,33.6h-6.2l-3.3-8.1h-15.8l-3.4,8.1h-6
	L553.4,96.9z"/>
<path class="st0" d="M582.9,113.9L582.9,113.9c-0.1-9.5,7.3-17.2,16.7-17.4c0.2,0,0.3,0,0.5,0c5.8,0,9.4,1.6,12.8,4.5l-3.7,4.4
	c-2.5-2.4-5.9-3.7-9.3-3.6c-6.2,0-10.8,5.4-10.8,11.8v0.1c0,6.9,4.5,11.9,11.3,11.9c2.9,0,5.7-0.8,8.1-2.5V117H600v-5.1h14.2v14
	c-3.9,3.3-8.8,5.2-13.9,5.2C589.9,131.1,583,123.6,582.9,113.9"/>
<polygon class="st0" points="626.9,97.1 651.7,97.1 651.7,102.4 632.8,102.4 632.8,111.1 649.5,111.1 649.5,116.3 632.8,116.3 
	632.8,125.3 651.9,125.3 651.9,130.5 626.9,130.5 "/>
<polygon class="st0" points="664,97.1 670.3,97.1 680.4,112.9 690.6,97.1 696.8,97.1 696.8,130.5 691,130.5 691,106.6 680.4,122.3 
	680.2,122.3 669.8,106.7 669.8,130.5 664,130.5 "/>
<polygon class="st0" points="710.6,97.1 735.3,97.1 735.3,102.4 716.4,102.4 716.4,111.1 733.2,111.1 733.2,116.3 716.4,116.3 
	716.4,125.3 735.6,125.3 735.6,130.5 710.6,130.5 "/>
<polygon class="st0" points="747.7,97.1 753.1,97.1 771,120.2 771,97.1 776.8,97.1 776.8,130.5 771.8,130.5 753.5,106.8 
	753.5,130.5 747.7,130.5 "/>
<polygon class="st0" points="798.7,102.6 788.1,102.6 788.1,97.1 815.2,97.1 815.2,102.6 804.6,102.6 804.6,130.5 798.7,130.5 "/>
<path class="st0" d="M830.1,104.5c1.2,0,1.8-0.6,1.8-1.5v-0.1c0-1-0.7-1.6-1.9-1.6h-2.3v3.1H830.1z M825.4,99.2h4.8
	c1.2-0.1,2.4,0.3,3.3,1.2c0.6,0.6,0.9,1.5,0.9,2.3l0,0c0.1,1.5-0.9,2.9-2.3,3.3l2.6,3.8h-2.8l-2.3-3.4h-1.9v3.5h-2.4V99.2z
	 M838.4,104.9L838.4,104.9c0.1-5-3.7-9.1-8.6-9.2c-4.9-0.1-9,3.7-9.2,8.6c0,0.2,0,0.4,0,0.6l0,0c-0.2,4.9,3.7,9,8.6,9.2
	c4.9,0.2,9-3.7,9.2-8.6C838.4,105.3,838.4,105.1,838.4,104.9 M819.4,104.9L819.4,104.9c0.2-5.6,4.8-9.9,10.4-9.8
	c5.3,0.2,9.6,4.4,9.8,9.7v0.1c-0.2,5.6-4.8,9.9-10.4,9.7C823.8,114.5,819.5,110.2,819.4,104.9"/>
<path class="st1" d="M139.1,1.2h31.7c7.8,0,14,2.2,17.9,6.1c3.1,3.1,4.8,7.3,4.7,11.6V19c0,7.7-4.1,12-9,14.7
	c7.9,3,12.8,7.6,12.8,16.8v0.2c0,12.5-10.2,18.7-25.6,18.7h-32.5L139.1,1.2z M167.6,28.8c6.6,0,10.8-2.1,10.8-7.2v-0.2
	c0-4.5-3.5-7-9.9-7h-14.8v14.4H167.6z M171.6,56.3c6.6,0,10.6-2.3,10.6-7.4v-0.2c0-4.6-3.4-7.4-11.1-7.4h-17.4v15L171.6,56.3z"/>
<path class="st1" d="M207.2,1.2h31.2c8.7,0,15.4,2.4,19.9,6.9c3.8,3.8,5.9,9.2,5.9,15.6v0.2c0,11-6,18-14.6,21.2l16.7,24.4h-17.6
	L234,47.6h-11.8v21.9h-15L207.2,1.2z M237.4,34.4c7.3,0,11.5-3.9,11.5-9.7v-0.2c0-6.4-4.5-9.8-11.8-9.8h-14.9v19.6L237.4,34.4z"/>
<path class="st1" d="M272.3,35.5v-0.2c0-19.4,15.3-35.3,36.4-35.3s36.2,15.7,36.2,35.1v0.2c0,19.4-15.3,35.3-36.4,35.3
	S272.3,55,272.3,35.5z M329.2,35.5v-0.2c0-11.7-8.6-21.5-20.7-21.5S288,23.4,288,35.1v0.2c0,11.7,8.6,21.5,20.7,21.5
	S329.2,47.2,329.2,35.5z"/>
<path class="st1" d="M352.8,35.5v-0.2c0-19.4,15.3-35.3,36.4-35.3s36.2,15.7,36.2,35.1v0.2c0,19.4-15.3,35.3-36.4,35.3
	S352.8,55,352.8,35.5z M409.7,35.5v-0.2c0-11.7-8.6-21.5-20.7-21.5s-20.5,9.6-20.5,21.3v0.2c0,11.7,8.6,21.5,20.7,21.5
	S409.7,47.2,409.7,35.5z"/>
<path class="st1" d="M436.3,1.2h15V31l27.8-29.8h18.2l-27.8,29l29.1,39.3h-18l-21.2-29.1l-7.9,8.2v20.9h-15L436.3,1.2z"/>
<path class="st1" d="M501.9,59.5l8.9-10.6c6.2,5.1,12.6,8.3,20.4,8.3c6.2,0,9.9-2.4,9.9-6.5v-0.2c0-3.8-2.3-5.8-13.8-8.7
	c-13.8-3.5-22.7-7.3-22.7-20.9v-0.2c0-12.4,10-20.6,23.9-20.6c9.2-0.2,18.2,2.9,25.4,8.7l-7.8,11.3c-6-4.2-12-6.7-17.8-6.7
	s-8.8,2.6-8.8,6v0.2c0,4.5,2.9,6,14.7,9c13.9,3.5,21.7,8.5,21.7,20.4v0.2c0,13.6-10.3,21.2-25.1,21.2
	C520.2,70.5,509.9,66.6,501.9,59.5z"/>
<path class="st1" d="M583.5,15h-20.8V1.2h56.6V15h-20.8v54.5h-15L583.5,15z"/>
<path class="st1" d="M622.4,35.5v-0.2c0-19.4,15.3-35.3,36.4-35.3S695,15.7,695,35.1v0.2c0,19.4-15.3,35.3-36.4,35.3
	S622.4,55,622.4,35.5z M679.3,35.5v-0.2c0-11.7-8.6-21.5-20.7-21.5s-20.5,9.6-20.5,21.3v0.2c0,11.7,8.6,21.5,20.7,21.5
	S679.3,47.2,679.3,35.5z"/>
<path class="st1" d="M703.5,1.2h13.9l32,42.1V1.2h14.8v68.3h-12.8l-33.1-43.4v43.4h-14.8V1.2z"/>
<path class="st1" d="M775.8,1.2h51.5v13.4h-36.6v13.9h32.2v13.4h-32.2v14.3h37.1v13.4h-52L775.8,1.2z"/>
</svg>
